# xmcd
#
# Track frame offsets: 
#        150
#        11265
#        29881
#        43209
#        56615
#        71082
#        87825
#        104682
#        119694
#        132827
#        145841
#        164165
#        176351
#        189712
#
# Disc length: 2738 seconds
#
# Revision: 0
# Processed by: cddbd v1.5.2PL0 Copyright (c) Steve Scherf et al.
# Submitted via: ExactAudioCopy v1.3
#
DISCID=d40ab00e
DTITLE=Open Highway - Heart Filled With Pain
DYEAR=2005
DGENRE=Bluegrass
TTITLE0=Away From You
TTITLE1=Next Sunday Darling
TTITLE2=Stone Coal Holler
TTITLE3=Heart Filled With Pain
TTITLE4=How Much Time (Has Time Erased)
TTITLE5=How Great Thou Art (Instrumental)
TTITLE6=Sunny Side of the Mountain
TTITLE7=32 Acres
TTITLE8=Junkman of the Town
TTITLE9=Church in the Valley
TTITLE10=Kiss Me Again
TTITLE11=As Long As You Love Me
TTITLE12=Rebel Soldier
TTITLE13=Cajun Fiddle (Instrumental)
EXTD=
EXTT0=
EXTT1=
EXTT2=
EXTT3=
EXTT4=
EXTT5=
EXTT6=
EXTT7=
EXTT8=
EXTT9=
EXTT10=
EXTT11=
EXTT12=
EXTT13=
PLAYORDER=
